<svg xmlns="http://www.w3.org/2000/svg" viewBox="55 24 310 270" aria-label="Botanical letter M monogram with leaves and berries" width="310" height="270"><metadata><rdf:RDF xmlns:rdf="http://www.w3.org/1999/02/22-rdf-syntax-ns#" xmlns:dc="http://purl.org/dc/elements/1.1/"><rdf:Description><dc:creator>RealFaviconGenerator</dc:creator><dc:source>https://realfavicongenerator.net</dc:source></rdf:Description></rdf:RDF></metadata><defs><path id="a" d="M119.8 76c3.3 12 4.1 34 3.3 64-.8 38-2.5 74-4.9 100"></path><path id="d" d="M119.8 78c-3.3-20-13.1-34-26.2-38-13.2-4-23 6-22.2 20"></path><path id="h" d="M71.4 60c.8 12 10.7 18 18.1 12 5.7-5 4.1-15-1.7-15"></path><path id="f" d="M118.2 238c-1.7 22-9.9 36-23 40-12.3 3-21.3-6-19.7-18"></path><path id="j" d="M75.5 260c1.7-10 11.5-13 15.6-6"></path><path id="b" d="M300.2 76c-3.3 12-4.1 34-3.3 64 .8 38 2.5 74 4.9 100"></path><path id="e" d="M300.2 78c3.3-20 13.1-34 26.2-38 13.2-4 23 6 22.2 20"></path><path id="i" d="M348.6 60c-.8 12-10.7 18-18.1 12-5.7-5-4.1-15 1.7-15"></path><path id="g" d="M301.8 238c1.7 22 9.9 36 23 40 12.3 3 21.3-6 19.7-18"></path><path id="k" d="M344.5 260c-1.7-10-11.5-13-15.6-6"></path><path id="c" d="M122.3 82c28.7 48 59.8 98 87.7 146 27.9-48 59-98 87.7-146"></path><linearGradient id="l" gradientUnits="userSpaceOnUse" x1="87" y1="50" x2="333" y2="290"><stop offset="0" stop-color="#b3dcc7"></stop><stop offset=".3" stop-color="#e9c9ba"></stop><stop offset=".52" stop-color="#bfe0cd"></stop><stop offset=".75" stop-color="#a5d3bc"></stop><stop offset="1" stop-color="#8cc5ab"></stop></linearGradient><g id="m" stroke="#6b4a38"><path d="M0 0c5-8 18-9 24-1C19 8 6 8 0 0Z" fill="#c9dfb9" stroke-width="2"></path><path d="M3 0c6-2 13-2 18-1" fill="none" stroke-width="1.4"></path></g></defs><g fill="none" stroke-linecap="round" stroke-linejoin="round"><g stroke="#6b4a38"><use href="#a" stroke-width="32"></use><use href="#b" stroke-width="32"></use><use href="#c" stroke-width="28"></use><use href="#d" stroke-width="22"></use><use href="#e" stroke-width="22"></use><use href="#f" stroke-width="22"></use><use href="#g" stroke-width="22"></use><use href="#h" stroke-width="12"></use><use href="#i" stroke-width="12"></use><use href="#j" stroke-width="12"></use><use href="#k" stroke-width="12"></use></g><g stroke="url(#l)"><use href="#a" stroke-width="25"></use><use href="#b" stroke-width="25"></use><use href="#c" stroke-width="21"></use><use href="#d" stroke-width="15"></use><use href="#e" stroke-width="15"></use><use href="#f" stroke-width="15"></use><use href="#g" stroke-width="15"></use><use href="#h" stroke-width="6"></use><use href="#i" stroke-width="6"></use><use href="#j" stroke-width="6"></use><use href="#k" stroke-width="6"></use></g></g><path d="M119.8 104c-2.5 32-2.5 64-3.3 92m183.7-92c2.5 32 2.5 64 3.3 92m-160.7-84c16.4 28 31.1 54 44.2 78m90.2-78c-16.4 28-31.1 54-44.2 78m-119.8 60c-3.2 10-8.2 16-14.7 19m208.3-19c3.2 10 8.2 16 14.7 19" fill="none" stroke="#6b4a38" stroke-width="1.8" stroke-linecap="round"></path><g fill="#6b4a38"><circle cx="118.2" cy="218" r="2.6"></circle><circle cx="301.8" cy="218" r="2.6"></circle><circle cx="196.9" cy="206" r="2.6"></circle><circle cx="223.1" cy="206" r="2.6"></circle><circle cx="123.1" cy="92" r="2.4"></circle><circle cx="296.9" cy="92" r="2.4"></circle></g><path d="M113.2 150c-11.4-2-21.3-8-29.5-18m29.5 48c-9.8 4-18 12-24.6 22m39.4-74c9.8-4 18-12 23-22" fill="none" stroke="#6b4a38" stroke-width="2" stroke-linecap="round"></path><use href="#m" transform="rotate(200 53.488 58.62)"></use><use href="#m" transform="rotate(150 17.237 112.87)"></use><use href="#m" transform="rotate(-35 243.595 -186.455)"></use><path d="M306.8 152c11.4-2 21.3-8 29.5-18m-29.5 50c9.8 4 18 12 24.6 22" fill="none" stroke="#6b4a38" stroke-width="2" stroke-linecap="round"></path><use href="#m" transform="rotate(160 156.336 96.65)scale(1 -1)"></use><use href="#m" transform="rotate(-150 193.299 58.6)scale(1 -1)"></use><g fill="none" stroke="#6b4a38" stroke-width="2" stroke-linecap="round"><path d="M210 212c-1.6-26 .8-50 8.2-70"></path><path d="M211.6 176c-8.2-4-14.7-4-21.3 0"></path></g><use href="#m" transform="rotate(160 79.633 104.778)"></use><use href="#m" transform="rotate(-55 245.49 -138.58)"></use><g stroke="#6b4a38" stroke-width="1.6" fill="#c47a80"><circle cx="233" cy="148" r="5.2"></circle><circle cx="224.8" cy="162" r="4.6"></circle><circle cx="237.9" cy="134" r="4.2"></circle></g></svg>